<?xml version="1.0" encoding="UTF-8" standalone="no"?>
<!DOCTYPE svg PUBLIC "-//W3C//DTD SVG 1.1//EN" "http://www.w3.org/Graphics/SVG/1.1/DTD/svg11.dtd">
<svg width="100%" height="100%" viewBox="0 0 943 1098" version="1.1" xmlns="http://www.w3.org/2000/svg" xmlns:xlink="http://www.w3.org/1999/xlink" xml:space="preserve" xmlns:serif="http://www.serif.com/" style="fill-rule:evenodd;clip-rule:evenodd;stroke-linecap:round;stroke-linejoin:round;stroke-miterlimit:1.5;">
    <g transform="matrix(1,0,0,1,-716.484,-835.698)">
        <path d="M1200.74,956.693C1200.74,956.693 1264.18,912.987 1327.43,992.126C1327.43,992.126 1379.31,1001.63 1398.51,1074.8C1398.51,1074.8 1444.82,1107.4 1433.96,1192.91C1433.96,1192.91 1451.15,1261.13 1405.51,1299.21C1405.51,1299.21 1393.84,1359.83 1317.66,1365.46C1317.66,1365.46 1310.44,1383.93 1263.78,1389.4C1263.78,1389.4 1215.24,1393.25 1200.74,1349.64L1200.74,956.693Z"/>
    </g>
    <g transform="matrix(1,0,0,1,-696.85,-835.926)">
        <path d="M1270.21,1216.54C1270.21,1216.54 1322.3,1219.08 1322.84,1287.4" style="fill:none;stroke:white;stroke-width:8.33px;"/>
    </g>
    <g transform="matrix(1,0,0,1,-661.417,-836.922)">
        <path d="M1334.65,1115.65C1334.65,1115.65 1282.36,1152 1346.46,1192.91" style="fill:none;stroke:white;stroke-width:8.33px;"/>
    </g>
    <g transform="matrix(1,0,0,1,-696.85,-800.493)">
        <path d="M1235.33,1240.16C1235.33,1240.16 1183,1278.01 1240.16,1322.84" style="fill:none;stroke:white;stroke-width:8.33px;"/>
    </g>
    <g transform="matrix(1,0,0,1,-661.417,-836.922)">
        <path d="M1314.55,1154.28C1314.55,1154.28 1297.79,1164.61 1287.4,1145.67" style="fill:none;stroke:white;stroke-width:8.33px;"/>
    </g>
    <g transform="matrix(1,0,0,1,-696.85,-835.926)">
        <path d="M1270.21,1216.54C1270.21,1216.54 1235.36,1189.46 1263.78,1167.3" style="fill:none;stroke:white;stroke-width:8.33px;"/>
    </g>
    <g transform="matrix(1,0,0,1,-696.85,-835.926)">
        <path d="M1270.21,1216.54C1270.21,1216.54 1243.75,1216.1 1263.78,1251.97" style="fill:none;stroke:white;stroke-width:8.33px;"/>
    </g>
    <g transform="matrix(1,0,0,1,-713.491,-847.737)">
        <g transform="matrix(1,0,0,1,-15.5612,11.583)">
            <path d="M1307.79,992.354C1307.79,992.354 1241.72,1009.03 1251.97,1069.52" style="fill:none;stroke:white;stroke-width:8.33px;"/>
        </g>
        <g transform="matrix(1,0,0,1,-39.1832,-6.13354)">
            <path d="M1287.4,1039.37C1287.4,1039.37 1316.4,1050.48 1307.79,1074.8" style="fill:none;stroke:white;stroke-width:8.33px;"/>
        </g>
    </g>
    <g transform="matrix(1,0,0,1,-683.945,-862.24)">
        <path d="M1285.98,1100.4C1285.98,1100.4 1287.52,1148.23 1234.23,1133.86" style="fill:none;stroke:white;stroke-width:8.33px;"/>
    </g>
    <g transform="matrix(1,0,0,1,-696.85,-835.926)">
        <path d="M1213.44,1316.93C1213.44,1316.93 1239.92,1326.03 1263.25,1311.76" style="fill:none;stroke:white;stroke-width:8.33px;"/>
    </g>
    <g transform="matrix(1,0,0,1,-696.85,-835.926)">
        <path d="M1288.67,1101.66C1288.67,1101.66 1278.54,1104.89 1287.56,1133.86" style="fill:none;stroke:white;stroke-width:8.33px;"/>
    </g>
    <g transform="matrix(-1,0,0,1,1661.55,-835.698)">
        <path d="M1200.74,956.693C1200.74,956.693 1264.18,912.987 1327.43,992.126C1327.43,992.126 1379.31,1001.63 1398.51,1074.8C1398.51,1074.8 1444.82,1107.4 1433.96,1192.91C1433.96,1192.91 1451.15,1261.13 1405.51,1299.21C1405.51,1299.21 1393.84,1359.83 1317.66,1365.46C1317.66,1365.46 1310.44,1383.93 1263.78,1389.4C1263.78,1389.4 1215.24,1393.25 1200.74,1349.64L1200.74,956.693Z"/>
    </g>
    <g transform="matrix(-1,0,0,1,1641.91,-835.926)">
        <path d="M1270.21,1216.54C1270.21,1216.54 1322.3,1219.08 1322.84,1287.4" style="fill:none;stroke:white;stroke-width:8.33px;"/>
    </g>
    <g transform="matrix(-1,0,0,1,1606.48,-836.922)">
        <path d="M1334.65,1115.65C1334.65,1115.65 1282.36,1152 1346.46,1192.91" style="fill:none;stroke:white;stroke-width:8.33px;"/>
    </g>
    <g transform="matrix(-1,0,0,1,1641.91,-800.493)">
        <path d="M1235.33,1240.16C1235.33,1240.16 1183,1278.01 1240.16,1322.84" style="fill:none;stroke:white;stroke-width:8.33px;"/>
    </g>
    <g transform="matrix(-1,0,0,1,1606.48,-836.922)">
        <path d="M1314.55,1154.28C1314.55,1154.28 1297.79,1164.61 1287.4,1145.67" style="fill:none;stroke:white;stroke-width:8.33px;"/>
    </g>
    <g transform="matrix(-1,0,0,1,1641.91,-835.926)">
        <path d="M1270.21,1216.54C1270.21,1216.54 1235.36,1189.46 1263.78,1167.3" style="fill:none;stroke:white;stroke-width:8.33px;"/>
    </g>
    <g transform="matrix(-1,0,0,1,1641.91,-835.926)">
        <path d="M1270.21,1216.54C1270.21,1216.54 1243.75,1216.1 1263.78,1251.97" style="fill:none;stroke:white;stroke-width:8.33px;"/>
    </g>
    <g transform="matrix(-1,0,0,1,1658.55,-847.737)">
        <g transform="matrix(1,0,0,1,-15.5612,11.583)">
            <path d="M1307.79,992.354C1307.79,992.354 1241.72,1009.03 1251.97,1069.52" style="fill:none;stroke:white;stroke-width:8.33px;"/>
        </g>
        <g transform="matrix(1,0,0,1,-39.1832,-6.13354)">
            <path d="M1287.4,1039.37C1287.4,1039.37 1316.4,1050.48 1307.79,1074.8" style="fill:none;stroke:white;stroke-width:8.33px;"/>
        </g>
    </g>
    <g transform="matrix(-1,0,0,1,1629,-862.24)">
        <path d="M1285.98,1100.4C1285.98,1100.4 1287.52,1148.23 1234.23,1133.86" style="fill:none;stroke:white;stroke-width:8.33px;"/>
    </g>
    <g transform="matrix(-1,0,0,1,1641.91,-835.926)">
        <path d="M1213.44,1316.93C1213.44,1316.93 1239.92,1326.03 1263.25,1311.76" style="fill:none;stroke:white;stroke-width:8.33px;"/>
    </g>
    <g transform="matrix(-1,0,0,1,1641.91,-835.926)">
        <path d="M1288.67,1101.66C1288.67,1101.66 1278.54,1104.89 1287.56,1133.86" style="fill:none;stroke:white;stroke-width:8.33px;"/>
    </g>
    <g transform="matrix(1,0,0,1,-708.661,-839.729)">
        <path d="M950.664,1552.83L950.664,1393.7" style="fill:none;stroke:black;stroke-width:41.67px;"/>
    </g>
    <g transform="matrix(1,0,0,-1,-242.002,2098.84)">
        <path d="M950.664,1552.83L950.664,1393.7" style="fill:none;stroke:black;stroke-width:41.67px;"/>
    </g>
    <g transform="matrix(1,0,0,0.5,-862.204,-388.91)">
        <path d="M1653.54,1661.92L1653.54,1275.59C1679.62,1275.59 1700.79,1296.76 1700.79,1322.84L1700.79,1614.68C1700.79,1640.76 1679.62,1661.92 1653.54,1661.92Z"/>
        <g>
            <clipPath id="_clip1">
                <path d="M1653.54,1661.92L1653.54,1275.59C1679.62,1275.59 1700.79,1296.76 1700.79,1322.84L1700.79,1614.68C1700.79,1640.76 1679.62,1661.92 1653.54,1661.92Z"/>
            </clipPath>
            <g clip-path="url(#_clip1)">
                <path d="M1653.54,1275.59C1679.62,1275.59 1700.79,1296.76 1700.79,1322.84L1700.79,1533.15L1653.54,1533.15L1653.54,1275.59Z"/>
            </g>
        </g>
    </g>
    <g transform="matrix(-1,0,0,0.5,1807.09,-393.101)">
        <path d="M1653.54,1661.92L1653.54,1275.59C1679.62,1275.59 1700.79,1296.76 1700.79,1322.84L1700.79,1614.68C1700.79,1640.76 1679.62,1661.92 1653.54,1661.92Z"/>
        <g>
            <clipPath id="_clip2">
                <path d="M1653.54,1661.92L1653.54,1275.59C1679.62,1275.59 1700.79,1296.76 1700.79,1322.84L1700.79,1614.68C1700.79,1640.76 1679.62,1661.92 1653.54,1661.92Z"/>
            </clipPath>
            <g clip-path="url(#_clip2)">
                <path d="M1653.54,1275.59C1679.62,1275.59 1700.79,1296.76 1700.79,1322.84L1700.79,1533.15L1653.54,1533.15L1653.54,1275.59Z"/>
            </g>
        </g>
    </g>
    <g transform="matrix(1,0,0,1,-708.661,-837.729)">
        <g transform="matrix(1.33333,0,0,1.33333,-756.731,-359.119)">
            <circle cx="1688.98" cy="933.071" r="35.433"/>
        </g>
        <g transform="matrix(0.2716,0,0,1,1018.84,-154.395)">
            <rect x="1689.18" y="1039.37" width="129.72" height="296.127"/>
        </g>
        <g transform="matrix(1,0,0,1,0,229.172)">
            <circle cx="1181.1" cy="944.882" r="314.135" style="fill:none;stroke:black;stroke-width:41.67px;"/>
        </g>
    </g>
    <g transform="matrix(1,0,0,1,-708.661,-775.09)">
        <path d="M814.961,1588.9C814.961,1588.9 864.461,1499.69 950.664,1488.19C950.664,1488.19 978.563,1537 1181.1,1541.13" style="fill:none;stroke:black;stroke-width:41.67px;"/>
    </g>
    <g transform="matrix(-1,0,0,1,1653.54,-775.09)">
        <path d="M814.961,1588.9C814.961,1588.9 864.461,1499.69 950.664,1488.19C950.664,1488.19 978.563,1537 1181.1,1541.13" style="fill:none;stroke:black;stroke-width:41.67px;"/>
    </g>
    <g transform="matrix(1,0,0,1,-708.661,-889.086)">
        <path d="M950.664,1488.19C950.664,1488.19 978.563,1537 1181.1,1541.13" style="fill:none;stroke:black;stroke-width:41.67px;"/>
    </g>
    <g transform="matrix(-1,0,0,1,1653.54,-889.086)">
        <path d="M950.664,1488.19C950.664,1488.19 978.563,1537 1181.1,1541.13" style="fill:none;stroke:black;stroke-width:41.67px;"/>
    </g>
    <g transform="matrix(1,0,0,1,-522.555,-768.851)">
        <g transform="matrix(1,0,0,1,510.822,1864.53)">
            <text x="0px" y="0px" style="font-family:'DINCondensed-Bold', 'DIN Condensed';font-weight:700;font-stretch:condensed;font-size:266.667px;">Neur</text>
        </g>
        <g transform="matrix(1,0,0,1,904.156,1864.53)">
            <text x="0px" y="0px" style="font-family:'DINCondensed-Bold', 'DIN Condensed';font-weight:700;font-stretch:condensed;font-size:266.667px;">oNauts</text>
        </g>
    </g>
</svg>
