<?xml version="1.0" encoding="UTF-8" standalone="no"?><!DOCTYPE svg PUBLIC "-//W3C//DTD SVG 1.1//EN" "http://www.w3.org/Graphics/SVG/1.1/DTD/svg11.dtd"><svg width="100%" height="100%" viewBox="0 0 928 1070" version="1.1" xmlns="http://www.w3.org/2000/svg" xmlns:xlink="http://www.w3.org/1999/xlink" xml:space="preserve" xmlns:serif="http://www.serif.com/" style="fill-rule:evenodd;clip-rule:evenodd;stroke-linecap:round;stroke-linejoin:round;stroke-miterlimit:1.5;"><rect x="3.125" y="3.125" width="921.26" height="1062.99" style="fill:#fff;stroke:#fff;stroke-width:6.25px;"/><path d="M472.613,192.171c0,0 47.587,-32.779 95.018,26.575c-0,0 38.909,7.126 53.314,62.008c-0,0 34.731,24.45 26.59,88.583c-0,-0 12.89,51.162 -21.34,79.724c0,0 -8.751,45.463 -65.886,49.687c0,0 -5.42,13.853 -40.413,17.957c0,-0 -36.406,2.882 -47.283,-29.826l0,-294.708Z"/><g><path d="M539.441,386.882c-0,0 39.07,1.905 39.471,53.15" style="fill:none;stroke:#fff;stroke-width:6.25px;"/><path d="M614.345,310.469c0,0 -39.217,27.266 8.859,57.95" style="fill:none;stroke:#fff;stroke-width:6.25px;"/><path d="M513.282,431.174c0,-0 -39.243,28.391 3.623,62.008" style="fill:none;stroke:#fff;stroke-width:6.25px;"/><path d="M599.271,339.444c0,0 -12.569,7.745 -20.359,-6.458" style="fill:none;stroke:#fff;stroke-width:6.25px;"/><path d="M539.441,386.882c-0,0 -26.137,-20.307 -4.82,-36.926" style="fill:none;stroke:#fff;stroke-width:6.25px;"/><path d="M539.441,386.882c-0,0 -19.839,-0.324 -4.82,26.575" style="fill:none;stroke:#fff;stroke-width:6.25px;"/><g><path d="M543.479,218.575c0,0 -49.552,12.505 -41.868,57.871" style="fill:none;stroke:#fff;stroke-width:6.25px;"/><path d="M510.47,240.55c-0,-0 21.749,8.33 15.293,26.575" style="fill:none;stroke:#fff;stroke-width:6.25px;"/></g><path d="M560.953,280.046c0,0 1.156,35.868 -38.812,25.093" style="fill:none;stroke:#fff;stroke-width:6.25px;"/><path d="M496.867,462.178c-0,-0 19.856,6.828 37.354,-3.879" style="fill:none;stroke:#fff;stroke-width:6.25px;"/><path d="M553.287,300.723c-0,-0 -7.593,2.423 -0.832,24.151" style="fill:none;stroke:#fff;stroke-width:6.25px;"/></g><path d="M455.032,192.171c0,0 -47.587,-32.779 -95.017,26.575c-0,0 -38.91,7.126 -53.314,62.008c-0,0 -34.731,24.45 -26.591,88.583c0,-0 -12.89,51.162 21.34,79.724c0,0 8.751,45.463 65.886,49.687c0,0 5.42,13.853 40.413,17.957c0,-0 36.406,2.882 47.283,-29.826l0,-294.708Z"/><g><path d="M388.204,386.882c0,0 -39.07,1.905 -39.471,53.15" style="fill:none;stroke:#fff;stroke-width:6.25px;"/><path d="M313.3,310.469c-0,0 39.217,27.266 -8.858,57.95" style="fill:none;stroke:#fff;stroke-width:6.25px;"/><path d="M414.363,431.174c-0,-0 39.243,28.391 -3.622,62.008" style="fill:none;stroke:#fff;stroke-width:6.25px;"/><path d="M328.374,339.444c0,0 12.569,7.745 20.359,-6.458" style="fill:none;stroke:#fff;stroke-width:6.25px;"/><path d="M388.204,386.882c0,0 26.138,-20.307 4.82,-36.926" style="fill:none;stroke:#fff;stroke-width:6.25px;"/><path d="M388.204,386.882c0,0 19.84,-0.324 4.82,26.575" style="fill:none;stroke:#fff;stroke-width:6.25px;"/><g><path d="M384.166,218.575c-0,0 49.552,12.505 41.868,57.871" style="fill:none;stroke:#fff;stroke-width:6.25px;"/><path d="M417.176,240.55c-0,-0 -21.75,8.33 -15.294,26.575" style="fill:none;stroke:#fff;stroke-width:6.25px;"/></g><path d="M366.692,280.046c0,0 -1.156,35.868 38.813,25.093" style="fill:none;stroke:#fff;stroke-width:6.25px;"/><path d="M430.779,462.178c-0,-0 -19.857,6.828 -37.355,-3.879" style="fill:none;stroke:#fff;stroke-width:6.25px;"/><path d="M374.359,300.723c-0,-0 7.592,2.423 0.831,24.151" style="fill:none;stroke:#fff;stroke-width:6.25px;"/></g><path d="M290.926,636.249l0,-119.344" style="fill:none;stroke:#000;stroke-width:31.25px;"/><path d="M640.92,510.933l0,119.344" style="fill:none;stroke:#000;stroke-width:31.25px;"/><g><path d="M702.928,432.965l0,-144.875c19.556,-0 35.433,7.938 35.433,17.716l0,109.442c0,9.778 -15.877,17.717 -35.433,17.717Z"/><clipPath id="_clip1"><path d="M702.928,432.965l0,-144.875c19.556,-0 35.433,7.938 35.433,17.716l0,109.442c0,9.778 -15.877,17.717 -35.433,17.717Z"/></clipPath><g clip-path="url(#_clip1)"><path d="M702.928,288.09c19.556,-0 35.433,7.938 35.433,17.716l0,78.867l-35.433,0l0,-96.583Z"/></g><path d="M224.582,429.822l-0,-144.876c-19.556,0 -35.433,7.939 -35.433,17.717l-0,109.442c-0,9.778 15.877,17.717 35.433,17.717Z"/><clipPath id="_clip2"><path d="M224.582,429.822l-0,-144.876c-19.556,0 -35.433,7.939 -35.433,17.717l-0,109.442c-0,9.778 15.877,17.717 35.433,17.717Z"/></clipPath><g clip-path="url(#_clip2)"><path d="M224.582,284.946c-19.556,0 -35.433,7.939 -35.433,17.717l-0,78.867l35.433,0l-0,-96.584Z"/></g><g><circle cx="699.356" cy="136.86" r="35.433"/><rect x="686.144" y="136.86" width="26.424" height="222.095"/><circle cx="463.755" cy="353.669" r="235.601" style="fill:none;stroke:#000;stroke-width:31.25px;"/></g></g><g><path d="M189.149,711.786c-0,0 37.125,-66.909 101.777,-75.537c0,0 20.924,36.605 172.829,39.706" style="fill:none;stroke:#000;stroke-width:31.25px;"/><path d="M738.361,711.786c0,0 -37.125,-66.909 -101.778,-75.537c0,0 -20.923,36.605 -172.828,39.706" style="fill:none;stroke:#000;stroke-width:31.25px;"/></g><g><path d="M290.926,550.752c0,0 20.924,36.605 172.829,39.706" style="fill:none;stroke:#000;stroke-width:31.25px;"/><path d="M636.583,550.752c0,0 -20.923,36.605 -172.828,39.706" style="fill:none;stroke:#000;stroke-width:31.25px;"/></g><g transform="matrix(200,0,0,200,821.424,923.185)"></g><text x="100.624px" y="923.185px" style="font-family:'DINCondensed-Bold', 'DIN Condensed';font-weight:700;font-stretch:condensed;font-size:200px;">Neur<tspan x="395.624px 469.624px " y="923.185px 923.185px ">oN</tspan>auts</text></svg>